<?xml version="1.0" encoding="utf-8"?><svg viewBox="0 0 72 72" xmlns="http://www.w3.org/2000/svg" xmlns:xlink="http://www.w3.org/1999/xlink"><style>:root>svg{display:none}:root>svg:target{display:block}</style><svg fill="none" viewBox="0 0 72 72" id="delivery-truck" xmlns="http://www.w3.org/2000/svg"><path d="M69.807 40.71c-7.564-11.582-6.76-23.454-10.406-29.036-3.646-5.582-14.512-15.206-40.186 1.564S.07 48.238 4.083 54.376C22.859 83.12 83.205 61.222 69.807 40.71Z" fill="#ECEFF2"/><path d="m61.912 42.033 1.414-1.415 2.829 2.829-1.415 1.414-2.828-2.828ZM53.781 33.903l1.415-1.414 2.828 2.828-1.414 1.414-2.829-2.828ZM62.27 35.327l2.828-2.828 1.414 1.414-2.828 2.828-1.414-1.414ZM37.98 66.16c-1.653 0-3-1.346-3-3s1.347-3 3-3c1.655 0 3 1.346 3 3s-1.345 3-3 3Zm0-4a1 1 0 1 0 .001 2.001 1 1 0 0 0 0-2Z" fill="#C2C8CD"/><path d="M39.06 33.5H16.5v21h29v-21h-6.44Z" fill="#F3F3F1"/><path d="M50.5 40.6h-5v13.9h13v-5.9a8 8 0 0 0-8-8Z" fill="#2A6CEA"/><path d="M27 58.5a3.5 3.5 0 1 0 0-7 3.5 3.5 0 0 0 0 7ZM51 58.5a3.5 3.5 0 1 0 0-7 3.5 3.5 0 0 0 0 7Z" fill="#F3F3F1"/><path d="M25 36.5c6.351 0 11.5-5.149 11.5-11.5S31.351 13.5 25 13.5 13.5 18.649 13.5 25 18.649 36.5 25 36.5Z" fill="#2A6CEA"/><path d="M21 36h-5v19h5V36Z" fill="#E1E6EA"/><path d="M45.5 40.6v13.9H50V40.6h-4.5Z" fill="#191C1F" fill-opacity=".1"/><path d="M28 55c0-1.072.492-2.018 1.25-2.66A3.47 3.47 0 0 0 27 51.5a3.501 3.501 0 0 0-3.5 3.5c0 1.932 1.568 3.5 3.5 3.5a3.47 3.47 0 0 0 2.25-.84A3.476 3.476 0 0 1 28 55ZM52 55c0-1.072.492-2.018 1.25-2.66A3.47 3.47 0 0 0 51 51.5a3.501 3.501 0 0 0-3.5 3.5c0 1.932 1.568 3.5 3.5 3.5a3.47 3.47 0 0 0 2.25-.84A3.476 3.476 0 0 1 52 55Z" fill="#D5DBE1"/><path d="M18 25c0-5.58 3.976-10.23 9.25-11.276A11.431 11.431 0 0 0 25 13.5c-6.352 0-11.5 5.148-11.5 11.5S18.648 36.5 25 36.5c.77 0 1.522-.078 2.25-.224C21.976 35.23 18 30.58 18 25Z" fill="#191C1F" fill-opacity=".1"/><path d="M25 30.5c-.384 0-.768-.146-1.06-.44l-6-6 2.121-2.122 4.94 4.94 4.94-4.94 2.122 2.122-6 6c-.296.294-.68.44-1.063.44Z" fill="#fff"/><path d="M25 56h-8.5a1.5 1.5 0 0 1-1.5-1.5V38.78h3V53h7v3ZM45.499 56h-16.54v-3h15.04V35h-5.22v-3h6.72a1.5 1.5 0 0 1 1.5 1.5v21a1.5 1.5 0 0 1-1.5 1.5Z" fill="#191C1F"/><path d="M58.5 56h-5.542v-3H57v-4.4c0-3.584-2.916-6.5-6.5-6.5H47V53h2v3h-3.5a1.5 1.5 0 0 1-1.5-1.5V40.6a1.5 1.5 0 0 1 1.5-1.5h5c5.238 0 9.5 4.262 9.5 9.5v5.9a1.5 1.5 0 0 1-1.5 1.5ZM27 60c-2.756 0-5-2.244-5-5s2.244-5 5-5 5 2.244 5 5-2.244 5-5 5Zm0-7c-1.102 0-2 .898-2 2 0 1.102.898 2 2 2 1.102 0 2-.898 2-2 0-1.102-.898-2-2-2Z" fill="#191C1F"/><path d="M51 60c-2.756 0-5-2.244-5-5s2.244-5 5-5 5 2.244 5 5-2.244 5-5 5Zm0-7c-1.102 0-2 .898-2 2 0 1.102.898 2 2 2 1.102 0 2-.898 2-2 0-1.102-.898-2-2-2Z" fill="#191C1F"/></svg><svg fill="none" viewBox="0 0 72 72" id="money-bags" xmlns="http://www.w3.org/2000/svg"><path d="M26.822 70.094c12.596-5.718 24.21-3.118 30.28-5.872 6.07-2.756 17.234-12.032 4.56-39.956C48.988-3.658 29.98.024 23.302 3.056c-31.264 14.188-18.79 77.162 3.52 67.038Z" fill="#ECEFF2"/><path d="M27.294 19.7h-.18l4.686-3.748c1.02-.812.44-2.452-.854-2.452H18.132c-1.296 0-1.874 1.64-.854 2.452l4.684 3.748h-.18c-4.768 2.796-8.612 10.76-8.612 16.534 0 4.134 2.066 8.266 6.888 8.266h9.3c4.822 0 6.888-4.134 6.888-8.266.004-5.774-4.184-13.738-8.952-16.534Z" fill="#F3F3F1"/><path d="M17.672 36.234c0-5.772 3.844-13.736 8.612-16.534h.18l-4.684-3.748c-1.02-.812-.44-2.452.854-2.452h-4.5c-1.296 0-1.874 1.64-.854 2.452l4.684 3.748h-.18c-4.768 2.796-8.612 10.76-8.612 16.534 0 4.134 2.066 8.266 6.888 8.266h4.5c-4.822 0-6.888-4.134-6.888-8.266Z" fill="#E1E6EA"/><path d="M49.716 19.7h-.18l4.684-3.748c1.02-.812.44-2.452-.854-2.452H40.552c-1.296 0-1.874 1.64-.854 2.452l4.684 3.748h-.18c-4.768 2.796-8.612 10.76-8.612 16.534 0 4.134 2.066 8.266 6.888 8.266h9.3c4.822 0 6.888-4.134 6.888-8.266.006-5.774-4.182-13.738-8.95-16.534Z" fill="#F3F3F1"/><path d="M40.094 36.234c0-5.772 3.844-13.736 8.612-16.534h.18L44.2 15.952c-1.02-.812-.44-2.452.854-2.452h-4.5c-1.296 0-1.874 1.64-.854 2.452l4.684 3.748h-.18c-4.768 2.796-8.612 10.76-8.612 16.534 0 4.134 2.066 8.266 6.888 8.266h4.5c-4.818 0-6.886-4.134-6.886-8.266Z" fill="#E1E6EA"/><path d="M38.835 33.7h-.18l4.684-3.748c1.02-.812.44-2.452-.854-2.452H29.671c-1.296 0-1.874 1.64-.854 2.452l4.684 3.748h-.18c-4.768 2.796-8.612 10.76-8.612 16.534 0 4.134 2.066 8.266 6.888 8.266h9.3c4.822 0 6.888-4.134 6.888-8.266.004-5.774-4.184-13.738-8.95-16.534Z" fill="#2A6CEA"/><path d="M35.06 52.4c-.396 0-.78-.158-1.06-.44l-4-4 2.122-2.122 2.778 2.778L39.86 42l2.398 1.8-6 8c-.26.348-.658.566-1.094.596-.034.004-.068.004-.104.004Z" fill="#fff"/><path d="M29.213 50.234c0-5.772 3.844-13.736 8.612-16.534h.18l-4.684-3.748c-1.02-.812-.44-2.452.854-2.452h-4.5c-1.296 0-1.874 1.64-.854 2.452l4.684 3.748h-.18c-4.768 2.796-8.612 10.76-8.612 16.534 0 4.134 2.066 8.266 6.888 8.266h4.5c-4.822 0-6.888-4.134-6.888-8.266Z" fill="#191C1F" fill-opacity=".1"/><path d="m59.932 54.82 2.828-2.83 1.414 1.415-2.828 2.829-1.414-1.415ZM51.8 62.949l2.83-2.829 1.413 1.414-2.828 2.829-1.414-1.414ZM51.8 53.05l1.415-1.414 2.828 2.829-1.414 1.414-2.828-2.828ZM59.93 61.181l1.414-1.414 2.828 2.828-1.414 1.415-2.828-2.829Z" fill="#C2C8CD"/><path d="m28.38 20.872-1.873-2.344L30.919 15H18.817l4.412 3.528-1.874 2.344-4.684-3.748a2.842 2.842 0 0 1-.92-3.2A2.84 2.84 0 0 1 18.46 12h12.814c1.238 0 2.3.756 2.71 1.926a2.846 2.846 0 0 1-.92 3.2l-4.684 3.746Z" fill="#191C1F"/><path d="M17.633 18.2h14.466v3H17.633v-3Z" fill="#191C1F"/><path d="M20.39 46C14.594 46 12 41.094 12 36.232c0-5.836 3.84-14.594 9.352-17.826l1.518 2.586C18.75 23.41 15 30.674 15 36.232c0 1.13.26 6.768 5.39 6.768v3ZM50.646 20.872l-1.874-2.344L53.184 15H41.082l4.412 3.528-1.874 2.344-4.684-3.746a2.85 2.85 0 0 1-.92-3.202A2.842 2.842 0 0 1 40.726 12H53.54c1.238 0 2.3.756 2.71 1.926a2.846 2.846 0 0 1-.92 3.2l-4.684 3.746Z" fill="#191C1F"/><path d="M39.9 18.2h14.466v3H39.9v-3Z" fill="#191C1F"/><path d="M51.61 46v-3C56.74 43 57 37.364 57 36.232c0-5.558-3.75-12.822-7.87-15.24l1.518-2.586c5.51 3.232 9.352 11.99 9.352 17.826 0 4.862-2.594 9.768-8.388 9.768Z" fill="#191C1F"/></svg><svg fill="none" viewBox="0 0 72 72" id="secure" xmlns="http://www.w3.org/2000/svg"><path d="M8.334 55.246c0-13.834-7.166-23.334-7.166-30S5 4.58 35.666 4.58c30.666 0 35.166 18.834 35.166 26.166.002 34.334-62.498 49-62.498 24.5Z" fill="#ECEFF2"/><path d="M53.25 16.5h2v4h-2v-4ZM57.75 22.5h4v2h-4v-2Z" fill="#C2C8CD"/><path d="M42.5 48.64V17.5c0-2.21-1.79-4-4-4h-21c-2.21 0-4 1.79-4 4v31.14c0 2.21 1.79 4 4 4h21c2.21 0 4-1.79 4-4Z" fill="#F3F3F1"/><path d="M48 58.5s10.5-4.464 10.5-13.392v-8.036L48 33.5l-10.5 3.572v8.036C37.5 54.036 48 58.5 48 58.5Z" fill="#2A6CEA"/><path d="M18 48.64V17.5c0-2.21 1.79-4 4-4h-4.5c-2.21 0-4 1.79-4 4v31.14c0 2.21 1.79 4 4 4H22c-2.21 0-4-1.79-4-4Z" fill="#E1E6EA"/><path d="M42 45.108v-8.036l8.25-2.806L48 33.5l-10.5 3.572v8.036C37.5 54.036 48 58.5 48 58.5s.942-.406 2.25-1.198C47.166 55.434 42 51.376 42 45.108Z" fill="#191C1F" fill-opacity=".1"/><path d="M30.5 54h-13a5.505 5.505 0 0 1-5.5-5.5v-31c0-3.034 2.466-5.5 5.5-5.5h21c3.034 0 5.5 2.466 5.5 5.5v11h-3v-11c0-1.378-1.122-2.5-2.5-2.5h-21a2.503 2.503 0 0 0-2.5 2.5v31c0 1.378 1.122 2.5 2.5 2.5h13v3Z" fill="#191C1F"/><path d="m20.56 37.56-2.12-2.12 5-5a1.495 1.495 0 0 1 1.803-.242l2.546 1.456 5.692-5.254 2.036 2.206-6.5 6a1.502 1.502 0 0 1-1.761.2l-2.506-1.432-4.19 4.186Z" fill="#191C1F"/><path d="M36 34h-3v-5h-5v-3h6.5a1.5 1.5 0 0 1 1.5 1.5V34Z" fill="#191C1F"/><path d="M47.5 51c-.397 0-.78-.158-1.06-.44l-4-4 2.122-2.122 2.778 2.778L52.3 40.6l2.397 1.8-6 8c-.26.348-.658.566-1.094.596-.034.004-.068.004-.104.004Z" fill="#fff"/></svg><svg fill="none" viewBox="0 0 72 72" id="waiting" xmlns="http://www.w3.org/2000/svg"><path d="M69.807 40.71c-7.564-11.582-6.76-23.454-10.406-29.036-3.646-5.582-14.512-15.206-40.186 1.564S.07 48.238 4.083 54.376C22.859 83.12 83.205 61.222 69.807 40.71Z" fill="#ECEFF2"/><path d="M37.5 22.892c0 .46-.302.856-.72.992l-9.714 3.182-3.182 9.714c-.136.418-.532.72-.992.72-.448 0-.824-.282-.97-.668L13.574 14.92a.872.872 0 0 1-.074-.376c0-.574.47-1.044 1.044-1.044.136 0 .26.02.376.074l21.914 8.348c.384.144.666.52.666.97Z" fill="#F3F3F1"/><path d="M18.074 14.92c-.022-.048-.02-.106-.032-.156l-3.122-1.19a.872.872 0 0 0-.376-.074c-.574 0-1.044.47-1.044 1.044a.9.9 0 0 0 .072.376l8.348 21.914c.146.386.522.668.97.668.46 0 .856-.302.992-.72l1.164-3.554-6.972-18.308Z" fill="#E1E6EA"/><path d="M45 58.5c7.456 0 13.5-6.044 13.5-13.5S52.456 31.5 45 31.5 31.5 37.544 31.5 45 37.544 58.5 45 58.5Z" fill="#2A6CEA"/><path d="M36 45c0-6.688 4.868-12.224 11.25-13.298A13.466 13.466 0 0 0 45 31.5c-7.456 0-13.5 6.044-13.5 13.5S37.544 58.5 45 58.5c.768 0 1.516-.08 2.25-.202C40.868 57.224 36 51.688 36 45Z" fill="#191C1F" fill-opacity=".1"/><g fill="#C2C8CD"><path d="m60.258 25.363 1.414-1.414 2.828 2.829-1.414 1.414-2.828-2.829ZM52.129 17.23l1.414-1.414 2.828 2.828-1.414 1.414-2.828-2.828ZM60.613 18.646l2.829-2.829 1.414 1.415-2.828 2.828-1.415-1.414ZM52.484 26.775l2.829-2.828 1.414 1.414-2.828 2.828-1.415-1.414Z"/></g><path d="m49.55 51.66-5.5-4.5A1.49 1.49 0 0 1 43.5 46v-8.5h3v7.79l4.95 4.05-1.9 2.32Z" fill="#fff"/><path d="M22.89 39a2.553 2.553 0 0 1-2.374-1.636l-8.346-21.91c-.104-.23-.17-.56-.17-.912A2.544 2.544 0 0 1 14.542 12c.352 0 .682.066.982.2l21.84 8.318a2.553 2.553 0 0 1 1.634 2.374 2.54 2.54 0 0 1-1.754 2.418l-8.992 2.946-2.946 8.992A2.537 2.537 0 0 1 22.89 39Zm-7.556-23.664 7.526 19.748 2.78-8.486a1.5 1.5 0 0 1 .958-.958l8.486-2.78-19.75-7.524Zm-.948-.362c.006.002.014.006.024.008l-.024-.008Zm.56-.66.026.068-.026-.068Z" fill="#191C1F"/></svg></svg>